<?xml version="1.0" encoding="UTF-8"?><svg id="a" xmlns="http://www.w3.org/2000/svg" viewBox="0 0 370 41"><defs><style>.d{fill:#35aa75;}.e{fill:#fff;}.f{fill:#1a171b;}.g{fill:#dcdce6;}.h{fill:#004f24;}.i{fill:#1d1d1b;}</style></defs><g id="b"><g><rect class="d" x="115.93" y="8.65" width="26.92" height="25.74"/><polygon class="e" points="133.09 24.63 129.07 25.81 139.01 18.71 131.81 18.71 129.54 12.8 127 18.71 120.07 18.71 125.64 23.09 122.44 30.54 128.73 26.05 135.9 30.54 133.09 24.63"/></g><g><rect class="d" x="204.68" y="8.65" width="26.92" height="25.74"/><polygon class="e" points="221.84 24.63 217.82 25.81 227.76 18.71 220.56 18.71 218.29 12.8 215.75 18.71 208.82 18.71 214.38 23.09 211.19 30.54 217.48 26.05 224.64 30.54 221.84 24.63"/></g><g><rect class="d" x="175.1" y="8.65" width="26.92" height="25.74"/><polygon class="e" points="192.26 24.63 188.23 25.81 198.17 18.71 190.98 18.71 188.71 12.8 186.17 18.71 179.24 18.71 184.8 23.09 181.61 30.54 187.9 26.05 195.06 30.54 192.26 24.63"/></g><g><rect class="d" x="145.51" y="8.65" width="26.92" height="25.74"/><polygon class="e" points="162.67 24.63 158.65 25.81 168.59 18.71 161.39 18.71 159.12 12.8 156.59 18.71 149.66 18.71 155.22 23.09 152.02 30.54 158.32 26.05 165.48 30.54 162.67 24.63"/></g><g><rect class="d" x="234.68" y="8.65" width="13.32" height="25.74"/><rect class="g" x="248" y="8.65" width="14" height="25.74"/><polygon class="e" points="251.84 24.63 247.82 25.81 257.76 18.71 250.56 18.71 248.29 12.8 245.75 18.71 238.82 18.71 244.38 23.09 241.19 30.54 247.48 26.05 254.64 30.54 251.84 24.63"/></g><g><path class="f" d="M276.81,18.56c.55,.59,.83,1.43,.83,2.52v4.83h-1.15v-4.79c0-.79-.19-1.39-.58-1.8-.39-.41-.93-.61-1.62-.61-.74,0-1.33,.22-1.76,.65-.43,.43-.64,1.08-.64,1.93v4.62h-1.16v-8.14h1.12v1.15c.55-.83,1.44-1.25,2.67-1.25,.98,0,1.74,.29,2.29,.88Z"/><path class="f" d="M281.29,25.57c-.49-.27-.87-.65-1.15-1.12-.28-.48-.41-1.02-.41-1.62s.14-1.15,.41-1.62c.27-.48,.66-.85,1.15-1.12,.49-.27,1.04-.4,1.65-.4s1.16,.13,1.65,.4c.48,.27,.86,.64,1.14,1.12,.27,.48,.41,1.02,.41,1.62s-.14,1.15-.41,1.62c-.28,.48-.66,.85-1.14,1.12-.48,.27-1.03,.41-1.65,.41s-1.16-.13-1.65-.41Zm2.72-.84c.31-.18,.56-.44,.74-.77,.18-.33,.27-.71,.27-1.13s-.09-.8-.27-1.13-.42-.58-.74-.76-.67-.27-1.06-.27-.75,.09-1.06,.27-.56,.43-.74,.76-.27,.71-.27,1.13,.09,.8,.27,1.13c.18,.33,.43,.59,.74,.77,.31,.18,.67,.27,1.06,.27s.75-.09,1.06-.27Z"/><path class="f" d="M291.38,25.55c-.16,.14-.36,.25-.6,.32-.24,.07-.49,.11-.74,.11-.62,0-1.1-.17-1.44-.5-.34-.33-.51-.81-.51-1.43v-5.65h1.12v1.35h1.77v.92h-1.77v3.34c0,.33,.08,.59,.25,.77,.17,.18,.41,.27,.72,.27,.34,0,.63-.1,.87-.29l.35,.8Z"/><path class="f" d="M297.54,24.26l.6,.72c-.27,.33-.61,.57-1.03,.74-.42,.17-.88,.26-1.39,.26-.65,0-1.23-.13-1.73-.4-.5-.27-.89-.64-1.17-1.12-.28-.48-.41-1.02-.41-1.63s.13-1.14,.4-1.62c.27-.48,.64-.86,1.1-1.12,.47-.27,1-.4,1.59-.4,.56,0,1.07,.13,1.52,.38s.82,.61,1.09,1.06c.27,.46,.41,.99,.42,1.58l-4.9,.95c.16,.43,.42,.76,.79,.99,.37,.23,.81,.35,1.33,.35,.74,0,1.33-.25,1.78-.74Zm-3.08-3.36c-.31,.18-.54,.43-.72,.75-.17,.32-.26,.7-.26,1.12v.12l3.94-.75c-.1-.45-.33-.81-.67-1.09-.35-.28-.77-.42-1.26-.42-.39,0-.73,.09-1.04,.27Zm1.7-3.56h1.42l-1.95,1.51h-1.05l1.58-1.51Z"/><g><path class="f" d="M308.69,24.26l.6,.72c-.27,.33-.61,.57-1.03,.74-.42,.17-.88,.26-1.39,.26-.65,0-1.23-.13-1.73-.4-.5-.27-.89-.64-1.17-1.12-.28-.48-.41-1.02-.41-1.63s.13-1.14,.4-1.62c.27-.48,.64-.86,1.1-1.12,.47-.27,1-.4,1.59-.4,.56,0,1.07,.13,1.52,.38s.82,.61,1.09,1.06c.27,.46,.41,.99,.42,1.58l-4.9,.95c.16,.43,.42,.76,.79,.99,.37,.23,.81,.35,1.33,.35,.74,0,1.33-.25,1.78-.74Zm-3.08-3.36c-.31,.18-.54,.43-.72,.75-.17,.32-.26,.7-.26,1.12v.12l3.94-.75c-.1-.45-.33-.81-.67-1.09-.35-.28-.77-.42-1.26-.42-.39,0-.73,.09-1.04,.27Z"/><path class="f" d="M306.87,26.23c-.69,0-1.31-.14-1.85-.43-.55-.29-.97-.7-1.27-1.22-.3-.52-.45-1.11-.45-1.75s.15-1.22,.43-1.74c.29-.52,.69-.93,1.2-1.22,.99-.56,2.34-.58,3.36-.02,.49,.27,.89,.66,1.19,1.15,.29,.49,.45,1.07,.45,1.71v.21l-4.79,.93c.14,.25,.32,.44,.56,.59,.33,.21,.73,.31,1.2,.31,.67,0,1.19-.22,1.59-.66l.19-.21,.92,1.1-.13,.16c-.3,.36-.68,.63-1.13,.82-.44,.18-.94,.27-1.48,.27Zm-.22-6.29c-.54,0-1.03,.12-1.46,.37-.43,.24-.77,.59-1.01,1.03-.25,.44-.37,.94-.37,1.49s.13,1.06,.38,1.5c.25,.44,.61,.78,1.07,1.03,.47,.25,1.01,.37,1.62,.37,.48,0,.91-.08,1.29-.24,.31-.13,.57-.3,.79-.52l-.29-.35c-.47,.42-1.06,.63-1.76,.63-.56,0-1.06-.13-1.46-.39-.41-.26-.71-.64-.89-1.11l-.1-.27,4.97-.97c-.03-.47-.16-.89-.38-1.25-.25-.42-.58-.74-1-.97-.42-.23-.89-.35-1.4-.35Zm-2.26,3.25v-.42c0-.47,.1-.88,.28-1.24,.19-.36,.47-.65,.81-.85h0c.34-.2,.74-.3,1.17-.3,.54,0,1.02,.16,1.41,.47,.39,.31,.65,.73,.76,1.23l.06,.25-4.49,.85Zm1.35-2.07c-.27,.16-.47,.37-.62,.65-.13,.24-.2,.51-.22,.82l3.37-.64c-.1-.28-.27-.51-.51-.7-.31-.25-.67-.36-1.1-.36-.34,0-.65,.08-.92,.23h0Z"/></g><g><path class="f" d="M315.46,25.91l-1.78-2.36-1.8,2.36h-1.24l2.43-3.15-2.31-3.01h1.24l1.7,2.22,1.69-2.22h1.22l-2.33,3.01,2.45,3.15h-1.27Z"/><path class="f" d="M317.24,26.16h-1.9l-1.66-2.2-1.68,2.2h-1.88l2.62-3.4-2.51-3.26h1.88l1.57,2.06,1.56-2.06h1.85l-2.52,3.26,2.65,3.4Zm-1.65-.5h.63l-2.26-2.9,2.13-2.76h-.59l-1.81,2.38-1.82-2.38h-.61l2.12,2.76-2.24,2.9h.61l1.93-2.52,1.9,2.52Z"/></g><g><path class="f" d="M319.2,25.57c-.49-.27-.88-.65-1.16-1.12-.28-.48-.42-1.02-.42-1.62s.14-1.15,.42-1.62c.28-.48,.66-.85,1.16-1.12,.49-.27,1.05-.4,1.68-.4,.56,0,1.06,.11,1.49,.34s.78,.55,1.02,.98l-.85,.55c-.19-.29-.43-.52-.72-.66-.29-.15-.6-.22-.95-.22-.4,0-.77,.09-1.09,.27-.32,.18-.57,.43-.76,.76s-.27,.71-.27,1.13,.09,.82,.27,1.15c.18,.33,.43,.58,.76,.76,.32,.18,.68,.27,1.09,.27,.35,0,.67-.07,.95-.22,.29-.15,.53-.37,.72-.66l.85,.54c-.24,.43-.58,.75-1.02,.98s-.94,.34-1.49,.34c-.63,0-1.19-.13-1.68-.41Z"/><path class="f" d="M320.88,26.23c-.67,0-1.28-.15-1.8-.44h0c-.53-.29-.95-.7-1.25-1.22-.3-.51-.45-1.1-.45-1.75s.15-1.24,.45-1.75c.3-.51,.72-.92,1.25-1.21,.53-.29,1.13-.43,1.8-.43,.6,0,1.14,.12,1.61,.36,.48,.25,.86,.61,1.12,1.08l.12,.21-1.25,.81-.14-.21c-.17-.26-.38-.45-.63-.58-.54-.28-1.28-.25-1.81,.04-.28,.16-.5,.38-.66,.66s-.24,.63-.24,1.01,.08,.73,.24,1.02c.16,.29,.38,.51,.66,.66,.52,.29,1.26,.32,1.81,.04,.25-.13,.46-.32,.63-.58l.14-.2,1.26,.79-.12,.21c-.26,.47-.64,.83-1.12,1.08-.47,.25-1.01,.37-1.61,.37Zm0-6.29c-.58,0-1.11,.12-1.56,.37-.45,.24-.81,.59-1.06,1.02-.26,.44-.38,.94-.38,1.5s.13,1.06,.38,1.5c.25,.44,.61,.78,1.06,1.03h0c.45,.25,.98,.38,1.56,.38,.51,0,.98-.11,1.38-.31,.33-.17,.59-.39,.79-.68l-.44-.28c-.19,.23-.41,.42-.67,.55-.69,.35-1.61,.32-2.28-.05-.36-.2-.65-.49-.85-.86-.2-.36-.3-.79-.3-1.27s.1-.89,.3-1.25c.2-.37,.49-.66,.85-.86,.67-.37,1.59-.4,2.28-.05,.25,.13,.48,.31,.67,.55l.44-.29c-.2-.29-.47-.51-.79-.68-.4-.21-.86-.31-1.38-.31Z"/></g><g><path class="f" d="M329.75,24.26l.6,.72c-.27,.33-.61,.57-1.03,.74-.42,.17-.88,.26-1.39,.26-.65,0-1.23-.13-1.73-.4-.5-.27-.89-.64-1.17-1.12-.28-.48-.41-1.02-.41-1.63s.13-1.14,.4-1.62c.27-.48,.64-.86,1.1-1.12,.47-.27,1-.4,1.59-.4,.56,0,1.07,.13,1.52,.38s.82,.61,1.09,1.06c.27,.46,.41,.99,.42,1.58l-4.9,.95c.16,.43,.42,.76,.79,.99,.37,.23,.81,.35,1.33,.35,.74,0,1.33-.25,1.78-.74Zm-3.08-3.36c-.31,.18-.54,.43-.72,.75-.17,.32-.26,.7-.26,1.12v.12l3.94-.75c-.1-.45-.33-.81-.67-1.09-.35-.28-.77-.42-1.26-.42-.39,0-.73,.09-1.04,.27Z"/><path class="f" d="M327.94,26.23c-.69,0-1.31-.14-1.85-.43-.55-.29-.97-.7-1.27-1.22-.3-.52-.45-1.11-.45-1.75s.15-1.22,.43-1.74c.29-.52,.69-.93,1.2-1.22,.99-.56,2.34-.58,3.36-.02,.49,.27,.89,.66,1.19,1.15,.29,.49,.45,1.07,.45,1.71v.21l-4.79,.93c.14,.25,.32,.44,.56,.59,.33,.21,.73,.31,1.2,.31,.67,0,1.19-.22,1.59-.66l.19-.21,.92,1.1-.13,.16c-.3,.36-.68,.63-1.13,.82-.44,.18-.94,.27-1.48,.27Zm-.22-6.29c-.54,0-1.03,.12-1.46,.37-.43,.24-.77,.59-1.01,1.03-.25,.44-.37,.94-.37,1.49s.13,1.06,.38,1.5c.25,.44,.61,.78,1.07,1.03,.47,.25,1.01,.37,1.62,.37,.48,0,.91-.08,1.29-.24,.31-.13,.57-.3,.79-.52l-.29-.35c-.47,.42-1.06,.63-1.76,.63-.56,0-1.06-.13-1.46-.39-.41-.26-.71-.64-.89-1.11l-.1-.27,4.97-.97c-.03-.47-.16-.89-.38-1.25-.25-.42-.58-.74-1-.97-.42-.23-.89-.35-1.4-.35Zm-2.26,3.25v-.42c0-.47,.1-.88,.28-1.24,.19-.36,.47-.65,.81-.85h0c.34-.2,.74-.3,1.17-.3,.54,0,1.02,.16,1.41,.47,.39,.31,.65,.73,.76,1.23l.06,.25-4.49,.85Zm1.35-2.07c-.27,.16-.47,.37-.62,.65-.13,.24-.2,.51-.22,.82l3.37-.64c-.1-.28-.27-.51-.51-.7-.31-.25-.67-.36-1.1-.36-.34,0-.65,.08-.92,.23h0Z"/></g><g><path class="f" d="M333.25,25.49c-.33-.33-.49-.79-.49-1.39v-6.82h1.12v6.72c0,.33,.08,.59,.24,.77,.16,.18,.4,.27,.72,.27,.19,0,.38-.04,.55-.12l.06,.92c-.26,.09-.52,.14-.8,.14-.6,0-1.06-.16-1.38-.49Z"/><path class="f" d="M334.64,26.23c-.66,0-1.19-.19-1.56-.57-.37-.38-.56-.9-.56-1.57v-7.07h1.62v6.97c0,.27,.06,.47,.18,.6,.18,.2,.61,.25,.97,.09l.33-.15,.09,1.47-.18,.06c-.28,.1-.58,.15-.89,.15Zm-1.62-8.7v6.57c0,.53,.14,.93,.42,1.21h0c.28,.28,.67,.42,1.21,.42,.19,0,.37-.02,.54-.07l-.03-.4c-.1,.02-.21,.03-.32,.03-.39,0-.69-.12-.9-.35-.2-.23-.3-.54-.3-.93v-6.47h-.62Z"/></g><g><path class="f" d="M337.44,25.49c-.33-.33-.49-.79-.49-1.39v-6.82h1.12v6.72c0,.33,.08,.59,.24,.77,.16,.18,.4,.27,.72,.27,.19,0,.38-.04,.55-.12l.06,.92c-.26,.09-.52,.14-.8,.14-.6,0-1.06-.16-1.38-.49Z"/><path class="f" d="M338.82,26.23c-.66,0-1.19-.19-1.56-.57-.37-.38-.56-.9-.56-1.57v-7.07h1.62v6.97c0,.27,.06,.47,.18,.6,.11,.12,.28,.18,.53,.18,.16,0,.3-.03,.44-.09l.33-.15,.09,1.47-.18,.06c-.28,.1-.58,.15-.89,.15Zm-1.62-8.7v6.57c0,.53,.14,.93,.42,1.21h0c.28,.28,.67,.42,1.21,.42,.19,0,.37-.02,.54-.07l-.03-.4c-.1,.02-.21,.03-.32,.03-.39,0-.69-.12-.9-.35-.2-.23-.3-.54-.3-.93v-6.47h-.62Z"/></g><g><path class="f" d="M345.58,24.26l.6,.72c-.27,.33-.61,.57-1.03,.74-.42,.17-.88,.26-1.39,.26-.65,0-1.23-.13-1.73-.4-.5-.27-.89-.64-1.17-1.12-.28-.48-.41-1.02-.41-1.63s.13-1.14,.4-1.62c.27-.48,.64-.86,1.1-1.12,.47-.27,1-.4,1.59-.4,.56,0,1.07,.13,1.52,.38s.82,.61,1.09,1.06c.27,.46,.41,.99,.42,1.58l-4.9,.95c.16,.43,.42,.76,.79,.99,.37,.23,.81,.35,1.33,.35,.74,0,1.33-.25,1.78-.74Zm-3.08-3.36c-.31,.18-.54,.43-.72,.75-.17,.32-.26,.7-.26,1.12v.12l3.94-.75c-.1-.45-.33-.81-.67-1.09-.35-.28-.77-.42-1.26-.42-.39,0-.73,.09-1.04,.27Z"/><path class="f" d="M343.77,26.23c-.69,0-1.31-.14-1.85-.43-.55-.29-.97-.7-1.27-1.22-.3-.52-.45-1.11-.45-1.75s.15-1.22,.43-1.74c.29-.52,.69-.93,1.2-1.22,.99-.56,2.34-.58,3.36-.02,.49,.27,.89,.66,1.19,1.15,.29,.49,.45,1.07,.45,1.71v.21l-4.79,.93c.14,.25,.32,.44,.56,.59,.33,.21,.73,.31,1.2,.31,.67,0,1.19-.22,1.59-.66l.19-.21,.92,1.1-.13,.16c-.3,.36-.68,.63-1.13,.82-.44,.18-.94,.27-1.48,.27Zm-.22-6.29c-.54,0-1.03,.12-1.46,.37-.43,.24-.77,.59-1.01,1.03-.25,.44-.37,.94-.37,1.49s.13,1.06,.38,1.5c.25,.44,.61,.78,1.07,1.03,.47,.25,1.01,.37,1.62,.37,.48,0,.91-.08,1.29-.24,.31-.13,.57-.3,.79-.52l-.29-.35c-.47,.42-1.06,.63-1.76,.63-.56,0-1.06-.13-1.46-.39-.41-.26-.71-.64-.89-1.11l-.1-.27,4.97-.97c-.03-.47-.16-.89-.38-1.25-.25-.42-.58-.74-1-.97-.42-.23-.89-.35-1.4-.35Zm-2.26,3.25v-.42c0-.47,.1-.88,.28-1.24,.19-.36,.47-.65,.81-.85h0c.34-.2,.74-.3,1.17-.3,.54,0,1.02,.16,1.41,.47,.39,.31,.65,.73,.76,1.23l.06,.25-4.49,.85Zm1.35-2.07c-.27,.16-.47,.37-.62,.65-.13,.24-.2,.51-.22,.82l3.37-.64c-.1-.28-.27-.51-.51-.7-.31-.25-.67-.36-1.1-.36-.34,0-.65,.08-.92,.23h0Z"/></g><g><path class="f" d="M353.75,20.37c.46,.45,.69,1.12,.69,2v3.55h-1.12v-3.42c0-.6-.14-1.05-.43-1.35-.29-.3-.7-.45-1.23-.45-.6,0-1.08,.18-1.43,.53-.35,.35-.52,.86-.52,1.52v3.17h-1.12v-6.16h1.07v.93c.22-.32,.53-.56,.91-.73,.38-.17,.82-.26,1.31-.26,.78,0,1.41,.23,1.87,.68Z"/><path class="f" d="M354.69,26.16h-1.62v-3.67c0-.53-.12-.92-.36-1.18-.24-.25-.58-.38-1.05-.38-.54,0-.95,.15-1.25,.46-.3,.3-.45,.75-.45,1.34v3.42h-1.62v-6.66h1.57v.56c.17-.13,.35-.25,.56-.34,.41-.18,.89-.28,1.41-.28,.85,0,1.53,.25,2.04,.75h0c.51,.5,.77,1.23,.77,2.17v3.8Zm-1.12-.5h.62v-3.3c0-.8-.21-1.41-.62-1.82-.42-.41-.97-.61-1.69-.61-.45,0-.86,.08-1.21,.23-.34,.15-.61,.37-.81,.65l-.45,.64v-1.47h-.57v5.66h.62v-2.92c0-.72,.2-1.29,.6-1.69,.4-.4,.94-.6,1.61-.6,.6,0,1.08,.18,1.41,.53,.33,.35,.5,.86,.5,1.52v3.17Z"/></g><g><path class="f" d="M360.21,25.55c-.16,.14-.36,.25-.6,.32-.24,.07-.49,.11-.74,.11-.62,0-1.1-.17-1.44-.5-.34-.33-.51-.81-.51-1.43v-5.65h1.12v1.35h1.77v.92h-1.77v3.34c0,.33,.08,.59,.25,.77,.17,.18,.41,.27,.72,.27,.34,0,.63-.1,.87-.29l.35,.8Z"/><path class="f" d="M358.86,26.23c-.69,0-1.23-.19-1.62-.57-.39-.38-.59-.92-.59-1.61v-5.9h1.62v1.35h1.77v1.42h-1.77v3.09c0,.27,.06,.47,.18,.6,.12,.13,.29,.19,.53,.19,.29,0,.52-.08,.71-.24l.26-.21,.55,1.27-.14,.12c-.19,.16-.42,.29-.69,.37-.26,.08-.54,.12-.82,.12Zm-1.7-7.58v5.4c0,.56,.14,.96,.44,1.25,.29,.29,.71,.43,1.27,.43,.23,0,.46-.03,.67-.1,.14-.04,.26-.1,.37-.16l-.15-.35c-.23,.11-.48,.17-.76,.17-.38,0-.68-.12-.9-.35-.21-.23-.32-.54-.32-.94v-3.59h1.77v-.42h-1.77v-1.35h-.62Z"/></g></g><g id="c"><path class="i" d="M32.52,18.11h10.08v1.88h-3.97v10.58h-2.18v-10.58h-3.95l.02-1.88Zm9.65,3.44h1.86v1.74h.03c.07-.25,.18-.48,.35-.71s.37-.45,.61-.63c.23-.2,.5-.35,.8-.47,.28-.12,.58-.18,.88-.18,.23,0,.4,.02,.48,.02,.08,.02,.18,.03,.27,.03v1.91c-.13-.03-.28-.05-.43-.07s-.28-.03-.43-.03c-.33,0-.65,.07-.95,.2s-.55,.33-.78,.58c-.22,.27-.4,.58-.53,.96s-.2,.83-.2,1.33v4.29h-1.99l.03-8.97Zm14.42,9.02h-1.96v-1.26h-.03c-.25,.47-.61,.81-1.1,1.1s-.98,.42-1.48,.42c-1.18,0-2.04-.28-2.58-.88-.53-.58-.8-1.48-.8-2.66v-5.73h1.99v5.53c0,.8,.15,1.36,.47,1.68,.3,.33,.73,.5,1.28,.5,.42,0,.76-.07,1.05-.2s.52-.3,.68-.52c.18-.22,.3-.48,.38-.78s.12-.63,.12-.98v-5.23h1.99v9.02h-.02Zm3.39-2.89c.07,.58,.28,.98,.66,1.23,.38,.23,.85,.35,1.38,.35,.18,0,.4-.02,.63-.05s.47-.08,.66-.17c.22-.08,.38-.2,.52-.37s.2-.37,.18-.61-.1-.47-.28-.63-.4-.28-.66-.4c-.27-.1-.58-.18-.93-.25s-.7-.15-1.06-.23-.73-.18-1.08-.3-.65-.27-.93-.48c-.27-.2-.5-.45-.65-.76-.17-.32-.25-.68-.25-1.15,0-.5,.12-.9,.37-1.23,.23-.33,.55-.6,.91-.8s.78-.35,1.23-.43,.88-.12,1.28-.12c.47,0,.91,.05,1.33,.15s.81,.25,1.15,.48c.35,.22,.63,.52,.85,.86,.23,.35,.37,.78,.43,1.28h-2.08c-.1-.48-.32-.8-.65-.96-.35-.17-.73-.25-1.18-.25-.13,0-.32,.02-.5,.03-.2,.03-.37,.07-.55,.13-.17,.07-.32,.17-.43,.28s-.18,.28-.18,.48c0,.25,.08,.43,.25,.58s.38,.27,.66,.38c.27,.1,.58,.18,.93,.25s.71,.15,1.08,.23,.71,.18,1.06,.3,.66,.27,.93,.48c.27,.2,.5,.45,.66,.75s.25,.68,.25,1.11c0,.53-.12,.98-.37,1.36-.25,.37-.56,.68-.95,.91s-.83,.4-1.3,.52c-.48,.1-.95,.17-1.41,.17-.56,0-1.1-.07-1.58-.2-.48-.13-.91-.33-1.26-.58-.35-.27-.63-.58-.83-.98-.2-.38-.32-.85-.33-1.4h2.01v.02h.02Zm6.56-6.13h1.51v-2.72h1.99v2.71h1.79v1.48h-1.79v4.82c0,.22,.02,.38,.03,.55,.02,.15,.07,.28,.12,.38,.07,.1,.17,.18,.28,.23,.13,.05,.3,.08,.53,.08,.13,0,.28,0,.42-.02s.28-.03,.42-.07v1.55c-.22,.03-.43,.05-.65,.07-.22,.03-.42,.03-.65,.03-.53,0-.95-.05-1.26-.15s-.56-.25-.75-.43c-.18-.2-.3-.43-.37-.71s-.1-.63-.12-1v-5.32h-1.51v-1.48Zm6.7,0h1.88v1.23h.03c.28-.53,.66-.9,1.16-1.13,.5-.23,1.03-.35,1.63-.35,.71,0,1.33,.12,1.86,.38,.53,.25,.96,.58,1.31,1.03,.35,.43,.61,.95,.78,1.53,.17,.58,.27,1.21,.27,1.86s-.08,1.2-.23,1.76c-.17,.56-.4,1.08-.71,1.51s-.71,.78-1.21,1.05-1.06,.4-1.73,.4c-.28,0-.58-.03-.86-.08s-.56-.13-.83-.25-.52-.27-.73-.45c-.23-.18-.42-.4-.56-.63h-.03v4.5h-1.99v-12.36h-.02Zm6.96,4.52c0-.4-.05-.8-.17-1.18-.1-.38-.27-.71-.48-1.01s-.48-.53-.78-.71c-.32-.18-.68-.27-1.08-.27-.83,0-1.46,.28-1.89,.86-.42,.58-.63,1.36-.63,2.33,0,.47,.05,.88,.17,1.26s.27,.71,.5,1c.22,.28,.48,.5,.8,.66s.66,.25,1.08,.25c.47,0,.83-.1,1.15-.28s.56-.43,.78-.71c.2-.3,.35-.63,.43-1.01,.08-.4,.13-.78,.13-1.18Zm3.51-7.96h1.99v1.88h-1.99v-1.88Zm0,3.44h1.99v9.02h-1.99v-9.02Zm3.77-3.44h1.99v12.46h-1.99v-12.46Zm8.07,12.71c-.71,0-1.36-.12-1.93-.37s-1.03-.56-1.43-.98c-.38-.42-.68-.93-.88-1.51s-.32-1.23-.32-1.91,.1-1.31,.32-1.89c.2-.58,.5-1.08,.88-1.51,.38-.42,.86-.75,1.43-.98s1.21-.37,1.93-.37,1.36,.12,1.93,.37c.56,.23,1.03,.56,1.43,.98,.38,.42,.68,.93,.88,1.51,.2,.58,.32,1.21,.32,1.89s-.1,1.33-.32,1.91c-.22,.58-.5,1.08-.88,1.51-.38,.42-.86,.75-1.43,.98s-1.2,.37-1.93,.37Zm0-1.58c.43,0,.83-.1,1.15-.28,.33-.18,.58-.43,.8-.73s.37-.65,.47-1.01c.1-.38,.15-.76,.15-1.16s-.05-.76-.15-1.15-.25-.71-.47-1.01-.48-.53-.8-.71c-.33-.18-.71-.28-1.15-.28s-.83,.1-1.15,.28c-.33,.18-.58,.43-.8,.71-.22,.3-.37,.63-.47,1.01-.1,.38-.15,.76-.15,1.15s.05,.78,.15,1.16,.25,.71,.47,1.01,.48,.55,.8,.73c.33,.2,.71,.28,1.15,.28Zm5.15-7.69h1.51v-2.72h1.99v2.71h1.79v1.48h-1.79v4.82c0,.22,.02,.38,.03,.55,.02,.15,.07,.28,.12,.38,.07,.1,.17,.18,.28,.23,.13,.05,.3,.08,.53,.08,.13,0,.28,0,.42-.02s.28-.03,.42-.07v1.55c-.22,.03-.43,.05-.65,.07-.22,.03-.42,.03-.65,.03-.53,0-.95-.05-1.26-.15s-.56-.25-.75-.43c-.18-.2-.3-.43-.37-.71s-.1-.63-.12-1v-5.32h-1.51v-1.48Z"/><path class="d" d="M30.2,18.11h-9.12l-2.81-8.67-2.82,8.67-9.12-.02,7.38,5.37-2.82,8.67,7.38-5.37,7.38,5.37-2.81-8.67,7.38-5.35Z"/><path class="h" d="M23.45,25.42l-.63-1.96-4.55,3.31,5.18-1.35Z"/></g></g></svg>